<?xml version="1.0" encoding="utf-8"?>
<!-- Generator: Adobe Illustrator 21.0.2, SVG Export Plug-In . SVG Version: 6.00 Build 0)  -->
<svg version="1.1" id="Layer_1" xmlns="http://www.w3.org/2000/svg" xmlns:xlink="http://www.w3.org/1999/xlink" x="0px" y="0px"
	 viewBox="0 0 214 47" style="enable-background:new 0 0 214 47;" xml:space="preserve">
<style type="text/css">
	.st0{fill:#D1D3D4;}
	.st1{fill:#EA3C80;}
	.st2{fill:#1BBBDA;}
	.st3{fill:#9F4E9E;}
	.st4{fill:#DBD987;}
	.st5{fill:#2667B2;}
	.st6{fill:#88C8CF;}
	.st7{fill:#EE81B4;}
	.st8{fill:#B199C9;}
	.st9{fill:#EC4936;}
	.st10{fill:#191919;}
</style>
<title>website_logos_outlines</title>
<g>
	<polygon class="st0" points="49.5,17.4 41.4,25.5 41.4,17.4 	"/>
	<polygon class="st1" points="49.5,17.4 41.4,17.4 41.4,9.2 	"/>
	<polygon class="st2" points="41.4,17.4 41.4,25.5 33.2,17.4 	"/>
	<polygon class="st3" points="41.4,9.2 41.4,17.4 33.2,17.4 	"/>
	<polygon class="st4" points="41.4,9.2 33.2,17.4 33.2,9.2 	"/>
	<polygon class="st5" points="41.4,25.5 33.2,33.7 33.2,25.5 	"/>
	<polygon class="st6" points="41.4,25.5 33.2,25.5 33.2,17.4 	"/>
	<polygon class="st7" points="33.2,25.5 33.2,33.7 25,25.5 	"/>
	<polygon class="st8" points="33.2,17.4 33.2,25.5 25,25.5 	"/>
	<polygon class="st5" points="33.2,9.2 33.2,17.4 25,9.2 	"/>
	<polygon class="st9" points="33.2,17.4 25,25.5 25,17.4 	"/>
	<polygon class="st1" points="33.2,33.7 25,41.9 25,33.7 	"/>
	<polygon class="st6" points="33.2,17.4 25,17.4 25,9.2 	"/>
	<polygon class="st8" points="33.2,33.7 25,33.7 25,25.5 	"/>
	<polygon class="st6" points="25,33.7 25,41.9 16.9,33.7 	"/>
	<polygon class="st4" points="25,25.5 25,33.7 16.9,33.7 	"/>
	<polygon class="st0" points="25,17.4 25,25.5 16.9,17.4 	"/>
	<polygon class="st3" points="25,9.2 25,17.4 16.9,17.4 	"/>
	<polygon class="st8" points="25,9.2 16.9,17.4 16.9,9.2 	"/>
	<polygon class="st2" points="16.9,33.7 8.7,25.5 16.9,25.5 	"/>
	<polygon class="st7" points="16.9,33.7 16.9,25.5 25,25.5 	"/>
	<polygon class="st0" points="16.9,25.5 8.7,25.5 16.9,17.4 	"/>
	<polygon class="st1" points="25,25.5 16.9,25.5 16.9,17.4 	"/>
	<polygon class="st4" points="16.9,9.2 16.9,17.4 8.7,9.2 8.7,9.2 	"/>
	<polygon class="st5" points="16.9,17.4 8.7,25.5 8.7,17.4 	"/>
	<polygon class="st9" points="16.9,17.4 8.7,17.4 8.7,9.2 	"/>
	<polygon class="st8" points="8.7,17.4 8.7,25.5 0.5,17.4 	"/>
	<polygon class="st7" points="8.7,9.2 8.7,17.4 0.5,17.4 	"/>
	<path class="st10" d="M77.4,28.9c0.1,7.1-5.6,12.8-12.7,12.9c-0.1,0-0.1,0-0.2,0c-3.6,0.1-7-1.4-9.4-4.1c-2.3-2.7-3.6-6.2-3.5-9.7
		h3.2c-0.1,2.7,0.8,5.4,2.6,7.5s4.4,3.3,7.1,3.2c5.4,0,9.7-4.3,9.7-9.7l0,0V9.1h3.2V28.9L77.4,28.9z"/>
	<polygon class="st10" points="157.8,9.1 147.5,41.8 144.4,41.8 135.9,14.5 127.4,41.8 124.3,41.8 114.2,9.1 117.5,9.1 125.9,36.4 
		134.3,9.1 137.6,9.1 146,36.3 154.5,9.1 	"/>
	<g>
		<g>
			<polygon class="st10" points="179.1,41.8 161.9,41.8 161.9,9.1 165,9.1 165,38.7 179.1,38.7 			"/>
			<path class="st10" d="M208.2,18.1c0-1.5-0.6-3-1.7-4.1c-1.1-1.1-2.5-1.7-4.1-1.7h-15.8v11.6h15.8c1.5,0,3-0.6,4.1-1.7
				C207.7,21.1,208.3,19.6,208.2,18.1L208.2,18.1L208.2,18.1z M213.5,41.8h-4.4L194.4,27h-7.6v14.8h-3.2V9.1h18.9
				c2.4,0,4.7,0.9,6.3,2.7c1.7,1.7,2.6,4,2.6,6.3c0,2.4-0.9,4.7-2.6,6.3c-1.6,1.7-3.9,2.6-6.3,2.6h-3.7L213.5,41.8L213.5,41.8
				L213.5,41.8z"/>
		</g>
	</g>
	<path class="st10" d="M110.7,23.9c-0.3-3.2-1.9-6.2-4.3-8.3c-2.4-2.2-5.5-3.4-8.7-3.3c-3.2,0-6.3,1.2-8.7,3.3
		c-2.5,2.1-4,5.1-4.3,8.3H110.7L110.7,23.9z M114,27.1H84.6c0.3,3.2,1.9,6.2,4.3,8.3c2.4,2.2,5.5,3.3,8.8,3.3
		c4.9,0,8.9-2.4,11.8-7.2l2.8,1.6c-3.5,5.9-8.3,8.8-14.5,8.8c-4.4,0.1-8.6-1.6-11.6-4.8c-3.1-3-4.8-7.2-4.8-11.6
		c-0.1-4.4,1.6-8.5,4.8-11.6c6.4-6.4,16.7-6.4,23.1,0c3.1,3.1,4.8,7.3,4.8,11.6v1.6L114,27.1L114,27.1z"/>
</g>
</svg>
